<svg xmlns="http://www.w3.org/2000/svg" width="512" height="512" fill="none" viewBox="0 0 512 512">
	<path fill="url(#news)" fill-opacity=".8"
		d="M131.8 333.7a46.5 46.5 0 1 1 0 93 47.2 47.2 0 0 1-46.5-46.5 46.5 46.5 0 0 1 46.5-46.5ZM85.3 124.9a28.2 28.2 0 0 1 30.2-28.8 332 332 0 0 1 300.4 300.4 28.2 28.2 0 0 1-28.8 30.2 33 33 0 0 1-31.9-30.2 271.6 271.6 0 0 0-239.7-239.7 33 33 0 0 1-30.2-31.9Zm0 120.8c0-16.7 13.6-30.4 30.1-28a211.2 211.2 0 0 1 179 178.9c2.4 16.5-11.4 30-28 30-16.7 0-30-13.6-33.2-30A150.8 150.8 0 0 0 115.3 279c-16.3-3.4-30-16.6-30-33.2Z" />
	<defs>
		<linearGradient id="news" x1="85.3" x2="447.6" y1="426.7" y2="132.7" gradientUnits="userSpaceOnUse">
			<stop stop-color="#2D68FF" />
			<stop offset="1" stop-color="#B6CBFF" />
		</linearGradient>
	</defs>
</svg>
